<svg width="16971" height="4006" viewBox="0 0 16971 4006" fill="none" xmlns="http://www.w3.org/2000/svg">
<path d="M0.5 4002.52V3705.52C150.473 3705.52 296.147 3711.73 361 3695.52C427.5 3677.02 437.53 3631.14 439.5 3595.02C441 3567.52 440 3562.52 440 3457.02L438 583.52C438 478.133 440 463.02 440 397.52C434.5 326.02 400.5 302.02 331 291.52C303 287.289 132 289.02 1 288.52V0.019534H2321.5C2863.5 0.0186484 3365 319.02 3430.5 375.522C3929 805.543 4051.83 1470.02 4064 1915.02C4077 2390.52 4013.29 2885.52 3776.5 3234.02C3555 3560.02 3087.5 3808.52 2722 3929.02C2570.93 3978.83 2447 4002.52 2321 4002.52H0.5ZM1656.5 3699.02C1952.5 3689.02 2051 3679.02 2277.5 3647.52C2779 3510.52 2967 3149.02 3038 3106.02C3175.81 2960.1 3272.04 2792.61 3345 2557.52C3406.5 2315.02 3394 2334.55 3394 1990.02C3394 1637.38 3389.33 1236.93 3288 977.52C3152.06 629.52 2714.96 474.872 2567 434.52C2176.5 328.02 2076 336.02 1707.5 316.52C1525.1 316.52 1027 319.02 945.5 319.02C895 319.02 888.5 357.52 888.5 375.52C888.5 416.02 888.5 540.346 888.5 629.52V3457.02C888.5 3675.52 872 3705.52 952.5 3705.52C1010 3705.52 1070 3705.52 1194 3705.52C1282.5 3705.52 1518.69 3699.02 1656.5 3699.02Z" fill="#37302F"/>
<path d="M2450.5 1226.52L3171.5 738.52L3840.5 1226.52V3008.02L2450.5 3832.52V1226.52Z" fill="#37302F"/>
<g filter="url(#filter0_di_718_114)">
<path d="M2819.5 1384.52L2646 1497.02V1724.02L2819.5 1663.52V1384.52Z" fill="#D9C097"/>
<path d="M3126.5 1230.02V1551.02L2960 1621.02V1316.52L3126.5 1230.02Z" fill="#D9C097"/>
<path d="M3126.5 1799.02V2103.52L2960 2143.52V1843.52L3126.5 1799.02Z" fill="#D9C097"/>
<path d="M2819.5 1860.02V2164.52L2646 2199.52V1921.02L2819.5 1860.02Z" fill="#D9C097"/>
<path d="M2819.5 2338.02V2627.52L2646 2640.02V2370.52L2819.5 2338.02Z" fill="#D9C097"/>
<path d="M3126.5 2280.52V2612.52L2960 2627.52V2310.52L3126.5 2280.52Z" fill="#D9C097"/>
<path d="M2819.5 2893.52H2679V3317.52H2819.5V2893.52Z" fill="#D9C097"/>
<path d="M2960 2893.52H3126.5V3341.02L2960 3317.52V2893.52Z" fill="#D9C097"/>
<path d="M3406 2310.52L3546.5 2338.02V2640.52L3406 2612.52V2310.52Z" fill="#D9C097"/>
<path d="M3631.5 2364.02L3743.5 2418.52V2672.02L3631.5 2640.52V2364.02Z" fill="#D9C097"/>
<path d="M3631.5 1891.52L3743.5 1972.02V2248.52L3631.5 2195.02V1891.52Z" fill="#D9C097"/>
<path d="M3406 1774.52L3546.5 1860.02V2164.52L3406 2137.52V1774.52Z" fill="#D9C097"/>
<path d="M3406 1215.02L3546.5 1328.52V1663.52L3406 1575.52V1215.02Z" fill="#D9C097"/>
<path d="M3631.5 1411.02L3743.5 1496.02V1799.02L3631.5 1719.02V1411.02Z" fill="#D9C097"/>
<path d="M2819.5 1384.52L2646 1497.02V1724.02L2819.5 1663.52V1384.52Z" stroke="#D9C097"/>
<path d="M3126.5 1230.02V1551.02L2960 1621.02V1316.52L3126.5 1230.02Z" stroke="#D9C097"/>
<path d="M3126.5 1799.02V2103.52L2960 2143.52V1843.52L3126.5 1799.02Z" stroke="#D9C097"/>
<path d="M2819.5 1860.02V2164.52L2646 2199.52V1921.02L2819.5 1860.02Z" stroke="#D9C097"/>
<path d="M2819.5 2338.02V2627.52L2646 2640.02V2370.52L2819.5 2338.02Z" stroke="#D9C097"/>
<path d="M3126.5 2280.52V2612.52L2960 2627.52V2310.52L3126.5 2280.52Z" stroke="#D9C097"/>
<path d="M2819.5 2893.52H2679V3317.52H2819.5V2893.52Z" stroke="#D9C097"/>
<path d="M2960 2893.52H3126.5V3341.02L2960 3317.52V2893.52Z" stroke="#D9C097"/>
<path d="M3406 2310.52L3546.5 2338.02V2640.52L3406 2612.52V2310.52Z" stroke="#D9C097"/>
<path d="M3631.5 2364.02L3743.5 2418.52V2672.02L3631.5 2640.52V2364.02Z" stroke="#D9C097"/>
<path d="M3631.5 1891.52L3743.5 1972.02V2248.52L3631.5 2195.02V1891.52Z" stroke="#D9C097"/>
<path d="M3406 1774.52L3546.5 1860.02V2164.52L3406 2137.52V1774.52Z" stroke="#D9C097"/>
<path d="M3406 1215.02L3546.5 1328.52V1663.52L3406 1575.52V1215.02Z" stroke="#D9C097"/>
<path d="M3631.5 1411.02L3743.5 1496.02V1799.02L3631.5 1719.02V1411.02Z" stroke="#D9C097"/>
</g>
<line x1="1519" y1="233.02" x2="1519" y2="1031.02" stroke="#37302F" stroke-width="40"/>
<rect x="1419" y="934.52" width="199" height="249" fill="#37302F"/>
<path d="M1522 1103.52C1284.52 1103.52 1092 1290.22 1092 1520.52H1952C1952 1290.22 1759.48 1103.52 1522 1103.52Z" fill="#37302F"/>
<g filter="url(#filter1_df_718_114)">
<path d="M1522 1695.02C1624.72 1695.02 1708 1616.67 1708 1520.02H1336C1336 1616.67 1419.28 1695.02 1522 1695.02Z" fill="#D9C096"/>
</g>
<path d="M277 2396.52C277 2286.06 366.543 2196.52 477 2196.52H1610C1720.46 2196.52 1810 2286.06 1810 2396.52V3041.52H277V2396.52Z" fill="#37302F"/>
<path d="M358 2400.02C358 2344.79 402.772 2300.02 458 2300.02H975V2957.02H358V2400.02Z" fill="#D9C197"/>
<path d="M1084 2300.52H1598C1653.23 2300.52 1698 2345.29 1698 2400.52V2956.52H1084V2300.52Z" fill="#D9C197"/>
<rect x="66" y="2996.52" width="2112" height="570" fill="#37302F"/>
<path d="M0 2681.52C0 2664.95 13.4315 2651.52 30 2651.52H381C463.843 2651.52 531 2718.68 531 2801.52V3566.52H0V2681.52Z" fill="#37302F"/>
<path d="M1768 2651.52H2088C2170.84 2651.52 2238 2718.68 2238 2801.52V3566.52H1768V2651.52Z" fill="#37302F"/>
<rect x="485" y="3041.52" width="1349" height="440" fill="#D9C197"/>
<path d="M1875 2804.52C1875 2776.91 1897.39 2754.52 1925 2754.52H2099C2126.61 2754.52 2149 2776.91 2149 2804.52V3481.52H1875V2804.52Z" fill="#D8C196"/>
<path d="M106 2784.52C106 2767.95 119.431 2754.52 136 2754.52H390C417.614 2754.52 440 2776.91 440 2804.52V3481.52H106V2784.52Z" fill="#D8C196"/>
<rect x="1949" y="3566.52" width="289" height="207" fill="#37302F"/>
<line x1="4826" y1="4005.02" x2="4826" y2="0.0019477" stroke="#37302F" stroke-width="100"/>
<path d="M5468.6 2497V2448.22H5527.92C5579.78 2448.22 5619.33 2440.31 5646.57 2424.49C5674.7 2407.79 5695.35 2385.38 5708.54 2357.25C5716.45 2338.8 5720.4 2283.43 5720.4 2191.14V1015.16C5720.4 923.758 5715.57 866.629 5705.9 843.777C5696.23 820.926 5676.46 801.15 5646.57 784.451C5617.57 766.873 5578.02 758.084 5527.92 758.084H5468.6V709.305H6268.84C6482.41 709.305 6654.24 738.309 6784.32 796.316C6943.4 867.508 7063.81 975.174 7145.55 1119.31C7228.17 1263.46 7269.47 1426.49 7269.47 1608.43C7269.47 1734.11 7249.26 1850.12 7208.83 1956.47C7168.4 2061.94 7116.11 2149.39 7051.95 2218.83C6987.79 2287.38 6913.52 2342.75 6829.14 2384.94C6745.65 2426.25 6643.25 2458.33 6521.96 2481.18C6468.35 2491.73 6383.98 2497 6268.84 2497H5468.6ZM6150.19 810.818V2205.64C6150.19 2279.47 6153.7 2324.73 6160.73 2341.43C6167.77 2358.13 6179.63 2370.88 6196.33 2379.67C6220.06 2392.85 6254.34 2399.44 6299.16 2399.44C6445.94 2399.44 6558 2349.34 6635.34 2249.15C6740.81 2113.8 6793.55 1903.74 6793.55 1618.97C6793.55 1389.58 6757.51 1206.33 6685.44 1069.22C6628.31 961.99 6554.92 889.041 6465.28 850.369C6401.99 823.123 6296.96 809.939 6150.19 810.818ZM8627.41 1988.11H7995.92L7920.77 2162.14C7896.16 2220.14 7883.86 2268.04 7883.86 2305.84C7883.86 2355.94 7904.07 2392.85 7944.5 2416.58C7968.23 2430.64 8026.68 2441.19 8119.85 2448.22V2497H7525.27V2448.22C7589.43 2438.55 7642.16 2412.19 7683.47 2369.12C7724.78 2325.17 7775.75 2235.09 7836.4 2098.86L8475.8 672.391H8500.85L9145.53 2138.41C9207.05 2277.27 9257.59 2364.72 9297.14 2400.76C9327.02 2428.01 9369.21 2443.83 9423.7 2448.22V2497H8558.86V2448.22H8594.46C8663.89 2448.22 8712.67 2438.55 8740.79 2419.22C8760.13 2405.15 8769.8 2384.94 8769.8 2358.57C8769.8 2342.75 8767.16 2326.49 8761.89 2309.79C8760.13 2301.88 8746.95 2268.92 8722.34 2210.92L8627.41 1988.11ZM8582.59 1890.55L8316.28 1274.88L8042.06 1890.55H8582.59ZM10247.7 709.305L11129.7 1818.04V1049.44C11129.7 942.215 11114.3 869.705 11083.5 831.912C11041.4 780.936 10970.6 756.326 10871.3 758.084V709.305H11461.9V758.084C11386.3 767.752 11335.4 780.496 11309 796.316C11283.5 811.258 11263.3 836.307 11248.3 871.463C11234.3 905.74 11227.2 965.066 11227.2 1049.44V2537.87H11182.4L9973.49 1049.44V2185.87C9973.49 2288.7 9996.78 2358.13 10043.4 2394.17C10090.8 2430.2 10144.9 2448.22 10205.5 2448.22H10247.7V2497H9613.58V2448.22C9712.01 2447.34 9780.57 2427.13 9819.24 2387.58C9857.91 2348.03 9877.25 2280.79 9877.25 2185.87V924.197L9839.02 876.736C9801.22 829.275 9767.82 798.074 9738.82 783.133C9709.82 768.191 9668.07 759.842 9613.58 758.084V709.305H10247.7ZM11682.1 2497V2448.22H11741.4C11793.3 2448.22 11832.8 2440.31 11860.1 2424.49C11888.2 2407.79 11908.9 2385.38 11922.1 2357.25C11930 2338.8 11933.9 2283.43 11933.9 2191.14V1015.16C11933.9 923.758 11929.1 866.629 11919.4 843.777C11909.7 820.926 11890 801.15 11860.1 784.451C11831.1 766.873 11791.5 758.084 11741.4 758.084H11682.1V709.305H12482.4C12695.9 709.305 12867.8 738.309 12997.8 796.316C13156.9 867.508 13277.3 975.174 13359.1 1119.31C13441.7 1263.46 13483 1426.49 13483 1608.43C13483 1734.11 13462.8 1850.12 13422.3 1956.47C13381.9 2061.94 13329.6 2149.39 13265.5 2218.83C13201.3 2287.38 13127 2342.75 13042.7 2384.94C12959.2 2426.25 12856.8 2458.33 12735.5 2481.18C12681.9 2491.73 12597.5 2497 12482.4 2497H11682.1ZM12363.7 810.818V2205.64C12363.7 2279.47 12367.2 2324.73 12374.2 2341.43C12381.3 2358.13 12393.1 2370.88 12409.8 2379.67C12433.6 2392.85 12467.9 2399.44 12512.7 2399.44C12659.5 2399.44 12771.5 2349.34 12848.9 2249.15C12954.3 2113.8 13007.1 1903.74 13007.1 1618.97C13007.1 1389.58 12971 1206.33 12899 1069.22C12841.8 961.99 12768.4 889.041 12678.8 850.369C12615.5 823.123 12510.5 809.939 12363.7 810.818ZM13781 709.305H14703.8V758.084H14657.7C14588.2 758.084 14540.3 765.555 14514 780.496C14488.5 794.559 14470 814.334 14458.6 839.822C14448.1 865.311 14442.8 929.031 14442.8 1030.98V1906.38C14442.8 2066.34 14454.7 2172.24 14478.4 2224.1C14503 2275.96 14543 2319.02 14598.4 2353.3C14653.7 2387.58 14723.6 2404.71 14808 2404.71C14904.7 2404.71 14986.8 2383.18 15054.5 2340.12C15123.1 2296.17 15174 2235.96 15207.4 2159.5C15241.7 2083.04 15258.8 1949.88 15258.8 1760.04V1030.98C15258.8 951.004 15250.5 893.875 15233.8 859.598C15217.1 825.32 15196 801.59 15170.5 788.406C15131 768.191 15075.2 758.084 15003.1 758.084V709.305H15621.4V758.084H15584.5C15534.4 758.084 15492.6 768.191 15459.2 788.406C15425.8 808.621 15401.7 838.943 15386.7 879.373C15375.3 907.498 15369.6 958.035 15369.6 1030.98V1709.94C15369.6 1920 15355.5 2071.61 15327.4 2164.77C15300.2 2257.94 15232.9 2343.63 15125.7 2421.85C15018.5 2500.08 14872.1 2539.19 14686.7 2539.19C14532 2539.19 14412.5 2518.53 14328.1 2477.22C14213 2420.97 14131.7 2348.9 14084.2 2261.01C14036.7 2173.12 14013 2054.91 14013 1906.38V1030.98C14013 928.152 14007.3 864.432 13995.9 839.822C13984.4 814.334 13964.7 794.119 13936.5 779.178C13908.4 764.236 13856.6 757.205 13781 758.084V709.305Z" fill="#37302F"/>
<path d="M5554.88 2914.44V3341H5481.34V2914.44H5554.88ZM6122.66 2914.44V3341H6049.12L5857.82 3035.43V3341H5784.28V2914.44H5857.82L6049.71 3220.59V2914.44H6122.66ZM6514.96 2914.44V3341H6442.01V2914.44H6514.96ZM6648.84 2914.44V2973.03H6309.29V2914.44H6648.84ZM7122.29 3282.7V3341H6895.83V3282.7H7122.29ZM6916.63 2914.44V3341H6843.09V2914.44H6916.63ZM7092.7 3092.56V3149.98H6895.83V3092.56H7092.7ZM7120.83 2914.44V2973.03H6895.83V2914.44H7120.83ZM7320.35 2914.44H7471.23C7503.65 2914.44 7531.29 2919.32 7554.14 2929.09C7576.99 2938.85 7594.47 2953.3 7606.58 2972.45C7618.89 2991.39 7625.04 3014.83 7625.04 3042.76C7625.04 3064.05 7621.13 3082.8 7613.32 3099.01C7605.51 3115.22 7594.47 3128.89 7580.21 3140.02C7565.96 3150.96 7548.96 3159.46 7529.24 3165.51L7506.97 3176.35H7371.33L7370.74 3118.05H7472.4C7489.98 3118.05 7504.63 3114.93 7516.35 3108.68C7528.07 3102.43 7536.86 3093.93 7542.71 3083.19C7548.77 3072.25 7551.8 3059.95 7551.8 3046.27C7551.8 3031.43 7548.87 3018.54 7543.01 3007.6C7537.34 2996.47 7528.55 2987.97 7516.64 2982.11C7504.73 2976.06 7489.59 2973.03 7471.23 2973.03H7393.89V3341H7320.35V2914.44ZM7563.81 3341L7463.61 3149.4L7540.66 3149.11L7642.32 3337.19V3341H7563.81ZM7914.8 2914.44V3341H7841.26V2914.44H7914.8ZM8484.34 3116V3139.44C8484.34 3171.66 8480.14 3200.57 8471.74 3226.16C8463.34 3251.74 8451.33 3273.52 8435.71 3291.49C8420.28 3309.46 8401.72 3323.23 8380.04 3332.8C8358.36 3342.17 8334.34 3346.86 8307.97 3346.86C8281.8 3346.86 8257.88 3342.17 8236.2 3332.8C8214.71 3323.23 8196.06 3309.46 8180.24 3291.49C8164.42 3273.52 8152.11 3251.74 8143.32 3226.16C8134.73 3200.57 8130.43 3171.66 8130.43 3139.44V3116C8130.43 3083.77 8134.73 3054.96 8143.32 3029.57C8151.92 3003.99 8164.03 2982.21 8179.65 2964.24C8195.47 2946.08 8214.12 2932.31 8235.61 2922.93C8257.29 2913.36 8281.21 2908.58 8307.39 2908.58C8333.75 2908.58 8357.78 2913.36 8379.46 2922.93C8401.14 2932.31 8419.79 2946.08 8435.41 2964.24C8451.04 2982.21 8463.05 3003.99 8471.45 3029.57C8480.04 3054.96 8484.34 3083.77 8484.34 3116ZM8410.8 3139.44V3115.41C8410.8 3091.59 8408.46 3070.59 8403.77 3052.43C8399.28 3034.07 8392.54 3018.73 8383.56 3006.43C8374.77 2993.93 8363.93 2984.55 8351.04 2978.3C8338.15 2971.86 8323.6 2968.64 8307.39 2968.64C8291.18 2968.64 8276.72 2971.86 8264.03 2978.3C8251.33 2984.55 8240.49 2993.93 8231.51 3006.43C8222.72 3018.73 8215.98 3034.07 8211.29 3052.43C8206.61 3070.59 8204.26 3091.59 8204.26 3115.41V3139.44C8204.26 3163.27 8206.61 3184.36 8211.29 3202.72C8215.98 3221.08 8222.82 3236.61 8231.8 3249.3C8240.98 3261.8 8251.92 3271.27 8264.61 3277.72C8277.31 3283.97 8291.76 3287.09 8307.97 3287.09C8324.38 3287.09 8338.93 3283.97 8351.62 3277.72C8364.32 3271.27 8375.06 3261.8 8383.85 3249.3C8392.64 3236.61 8399.28 3221.08 8403.77 3202.72C8408.46 3184.36 8410.8 3163.27 8410.8 3139.44ZM8695.88 2914.44H8846.75C8879.18 2914.44 8906.81 2919.32 8929.66 2929.09C8952.52 2938.85 8970 2953.3 8982.11 2972.45C8994.41 2991.39 9000.56 3014.83 9000.56 3042.76C9000.56 3064.05 8996.66 3082.8 8988.84 3099.01C8981.03 3115.22 8970 3128.89 8955.74 3140.02C8941.48 3150.96 8924.49 3159.46 8904.76 3165.51L8882.5 3176.35H8746.85L8746.27 3118.05H8847.93C8865.5 3118.05 8880.15 3114.93 8891.87 3108.68C8903.59 3102.43 8912.38 3093.93 8918.24 3083.19C8924.29 3072.25 8927.32 3059.95 8927.32 3046.27C8927.32 3031.43 8924.39 3018.54 8918.53 3007.6C8912.87 2996.47 8904.08 2987.97 8892.16 2982.11C8880.25 2976.06 8865.11 2973.03 8846.75 2973.03H8769.41V3341H8695.88V2914.44ZM8939.33 3341L8839.14 3149.4L8916.19 3149.11L9017.85 3337.19V3341H8939.33ZM9436.22 3231.14C9436.22 3222.35 9434.85 3214.54 9432.12 3207.7C9429.58 3200.86 9424.99 3194.61 9418.35 3188.95C9411.71 3183.29 9402.33 3177.82 9390.22 3172.54C9378.31 3167.07 9363.07 3161.51 9344.52 3155.84C9324.21 3149.59 9305.46 3142.66 9288.27 3135.04C9271.28 3127.23 9256.43 3118.25 9243.74 3108.09C9231.04 3097.74 9221.18 3085.92 9214.15 3072.64C9207.12 3059.16 9203.6 3043.64 9203.6 3026.06C9203.6 3008.68 9207.21 2992.86 9214.44 2978.6C9221.86 2964.34 9232.31 2952.04 9245.79 2941.68C9259.46 2931.14 9275.57 2923.03 9294.13 2917.37C9312.68 2911.51 9333.19 2908.58 9355.65 2908.58C9387.29 2908.58 9414.54 2914.44 9437.39 2926.16C9460.44 2937.88 9478.11 2953.6 9490.42 2973.32C9502.92 2993.05 9509.17 3014.83 9509.17 3038.66H9436.22C9436.22 3024.59 9433.19 3012.19 9427.14 3001.45C9421.28 2990.51 9412.29 2981.92 9400.18 2975.67C9388.27 2969.42 9373.13 2966.29 9354.77 2966.29C9337.39 2966.29 9322.94 2968.93 9311.41 2974.2C9299.89 2979.48 9291.3 2986.61 9285.63 2995.59C9279.97 3004.57 9277.14 3014.73 9277.14 3026.06C9277.14 3034.07 9278.99 3041.39 9282.7 3048.03C9286.41 3054.48 9292.08 3060.53 9299.7 3066.2C9307.31 3071.66 9316.88 3076.84 9328.41 3081.72C9339.93 3086.61 9353.5 3091.29 9369.13 3095.79C9392.76 3102.82 9413.37 3110.63 9430.95 3119.22C9448.52 3127.62 9463.17 3137.19 9474.89 3147.93C9486.61 3158.68 9495.4 3170.88 9501.26 3184.55C9507.12 3198.03 9510.05 3213.36 9510.05 3230.55C9510.05 3248.52 9506.43 3264.73 9499.21 3279.18C9491.98 3293.44 9481.63 3305.65 9468.15 3315.8C9454.87 3325.77 9438.86 3333.48 9420.11 3338.95C9401.55 3344.22 9380.85 3346.86 9358 3346.86C9337.49 3346.86 9317.27 3344.12 9297.35 3338.66C9277.62 3333.19 9259.66 3324.89 9243.45 3313.75C9227.23 3302.43 9214.34 3288.36 9204.77 3271.57C9195.2 3254.57 9190.42 3234.75 9190.42 3212.09H9263.95C9263.95 3225.96 9266.3 3237.78 9270.98 3247.54C9275.87 3257.31 9282.61 3265.32 9291.2 3271.57C9299.79 3277.62 9309.75 3282.11 9321.08 3285.04C9332.61 3287.97 9344.91 3289.44 9358 3289.44C9375.18 3289.44 9389.54 3287 9401.06 3282.11C9412.78 3277.23 9421.57 3270.39 9427.43 3261.61C9433.29 3252.82 9436.22 3242.66 9436.22 3231.14ZM10066.4 3108.97L10140 3059.46C10152.3 3051.25 10161 3043.25 10166.3 3035.43C10171.6 3027.43 10174.2 3017.46 10174.2 3005.55C10174.2 2995.39 10170.3 2986.02 10162.5 2977.43C10154.7 2968.83 10143.7 2964.54 10129.4 2964.54C10119.4 2964.54 10111 2966.88 10104.2 2971.57C10097.4 2976.06 10092.2 2982.11 10088.7 2989.73C10085.4 2997.15 10083.7 3005.45 10083.7 3014.63C10083.7 3023.42 10085.9 3032.5 10090.4 3041.88C10094.9 3051.06 10101.1 3060.73 10108.9 3070.88C10116.7 3080.84 10125.5 3091.59 10135.3 3103.11L10336.8 3341H10255.1L10090.4 3147.35C10076.2 3130.16 10063.6 3114.44 10052.6 3100.18C10041.7 3085.73 10033.2 3071.76 10027.2 3058.29C10021.1 3044.61 10018.1 3030.55 10018.1 3016.1C10018.1 2993.83 10022.7 2974.69 10031.8 2958.68C10041 2942.66 10054 2930.36 10070.8 2921.76C10087.6 2912.97 10107.2 2908.58 10129.7 2908.58C10151.4 2908.58 10170 2912.97 10185.7 2921.76C10201.5 2930.36 10213.6 2941.78 10222 2956.04C10230.6 2970.3 10234.9 2985.92 10234.9 3002.91C10234.9 3016.39 10232.4 3028.7 10227.6 3039.83C10222.7 3050.96 10215.9 3061.12 10207.3 3070.3C10198.7 3079.48 10188.8 3088.17 10177.5 3096.37L10088.1 3161.41C10077.7 3169.81 10070 3177.91 10065 3185.73C10060.1 3193.34 10056.8 3200.38 10055.3 3206.82C10053.7 3213.27 10052.9 3218.93 10052.9 3223.81C10052.9 3236.31 10055.6 3247.64 10060.9 3257.8C10066.3 3267.95 10074.2 3276.06 10084.6 3282.11C10095.1 3287.97 10107.9 3290.9 10123 3290.9C10139.2 3290.9 10154.9 3287.29 10170.1 3280.06C10185.4 3272.64 10199 3262.19 10211.1 3248.71C10223.3 3235.24 10232.8 3219.12 10239.9 3200.38C10247.1 3181.62 10250.7 3160.82 10250.7 3137.97H10311.6C10311.6 3158.68 10309.6 3178.3 10305.5 3196.86C10301.6 3215.41 10295.2 3232.6 10286.4 3248.42C10277.8 3264.24 10266.5 3278.4 10252.5 3290.9C10251.1 3292.27 10249.5 3294.03 10247.8 3296.18C10246.2 3298.13 10244.6 3299.79 10243.1 3301.16C10226.3 3316.59 10207.4 3328.11 10186.5 3335.73C10165.8 3343.15 10143.8 3346.86 10120.3 3346.86C10092 3346.86 10067.5 3341.68 10046.8 3331.33C10026.1 3320.98 10010.1 3306.72 9998.74 3288.56C9987.61 3270.39 9982.04 3249.59 9982.04 3226.16C9982.04 3208.77 9985.66 3193.54 9992.88 3180.45C10000.1 3167.17 10010 3154.87 10022.5 3143.54C10035.2 3132.02 10049.8 3120.49 10066.4 3108.97ZM10934.8 3341H10843.7L10844.3 3282.7H10934.8C10961.2 3282.7 10983.2 3276.94 11001 3265.41C11019 3253.89 11032.5 3237.39 11041.4 3215.9C11050.6 3194.42 11055.2 3168.83 11055.2 3139.14V3116C11055.2 3092.95 11052.6 3072.54 11047.3 3054.77C11042.2 3037 11034.6 3022.05 11024.4 3009.95C11014.5 2997.84 11002.2 2988.66 10987.5 2982.41C10973.1 2976.16 10956.4 2973.03 10937.4 2973.03H10841.9V2914.44H10937.4C10965.8 2914.44 10991.6 2919.22 11015.1 2928.79C11038.5 2938.17 11058.7 2951.74 11075.7 2969.52C11092.9 2987.29 11106.1 3008.58 11115.3 3033.38C11124.4 3058.19 11129 3085.92 11129 3116.59V3139.14C11129 3169.81 11124.4 3197.54 11115.3 3222.35C11106.1 3247.15 11092.9 3268.44 11075.7 3286.21C11058.5 3303.79 11038 3317.37 11014.2 3326.94C10990.6 3336.31 10964.1 3341 10934.8 3341ZM10884.4 2914.44V3341H10810.9V2914.44H10884.4ZM11620.1 3282.7V3341H11393.6V3282.7H11620.1ZM11414.4 2914.44V3341H11340.9V2914.44H11414.4ZM11590.5 3092.56V3149.98H11393.6V3092.56H11590.5ZM11618.6 2914.44V2973.03H11393.6V2914.44H11618.6ZM11964.3 3263.07L12076.5 2914.44H12157.7L12004.7 3341H11950L11964.3 3263.07ZM11860.6 2914.44L11971.9 3263.07L11987.2 3341H11932.1L11779.7 2914.44H11860.6ZM12622.6 3282.7V3341H12396.2V3282.7H12622.6ZM12417 2914.44V3341H12343.4V2914.44H12417ZM12593 3092.56V3149.98H12396.2V3092.56H12593ZM12621.2 2914.44V2973.03H12396.2V2914.44H12621.2ZM13087.9 3282.7V3341H12873.7V3282.7H13087.9ZM12894.2 2914.44V3341H12820.7V2914.44H12894.2ZM13603.5 3116V3139.44C13603.5 3171.66 13599.3 3200.57 13590.9 3226.16C13582.5 3251.74 13570.5 3273.52 13554.9 3291.49C13539.4 3309.46 13520.9 3323.23 13499.2 3332.8C13477.5 3342.17 13453.5 3346.86 13427.1 3346.86C13401 3346.86 13377 3342.17 13355.4 3332.8C13333.9 3323.23 13315.2 3309.46 13299.4 3291.49C13283.6 3273.52 13271.3 3251.74 13262.5 3226.16C13253.9 3200.57 13249.6 3171.66 13249.6 3139.44V3116C13249.6 3083.77 13253.9 3054.96 13262.5 3029.57C13271.1 3003.99 13283.2 2982.21 13298.8 2964.24C13314.6 2946.08 13333.3 2932.31 13354.8 2922.93C13376.5 2913.36 13400.4 2908.58 13426.6 2908.58C13452.9 2908.58 13476.9 2913.36 13498.6 2922.93C13520.3 2932.31 13539 2946.08 13554.6 2964.24C13570.2 2982.21 13582.2 3003.99 13590.6 3029.57C13599.2 3054.96 13603.5 3083.77 13603.5 3116ZM13530 3139.44V3115.41C13530 3091.59 13527.6 3070.59 13522.9 3052.43C13518.5 3034.07 13511.7 3018.73 13502.7 3006.43C13493.9 2993.93 13483.1 2984.55 13470.2 2978.3C13457.3 2971.86 13442.8 2968.64 13426.6 2968.64C13410.3 2968.64 13395.9 2971.86 13383.2 2978.3C13370.5 2984.55 13359.7 2993.93 13350.7 3006.43C13341.9 3018.73 13335.2 3034.07 13330.5 3052.43C13325.8 3070.59 13323.4 3091.59 13323.4 3115.41V3139.44C13323.4 3163.27 13325.8 3184.36 13330.5 3202.72C13335.2 3221.08 13342 3236.61 13351 3249.3C13360.2 3261.8 13371.1 3271.27 13383.8 3277.72C13396.5 3283.97 13410.9 3287.09 13427.1 3287.09C13443.6 3287.09 13458.1 3283.97 13470.8 3277.72C13483.5 3271.27 13494.2 3261.8 13503 3249.3C13511.8 3236.61 13518.5 3221.08 13522.9 3202.72C13527.6 3184.36 13530 3163.27 13530 3139.44ZM13977.1 3181.92H13866V3123.62H13977.1C13996.4 3123.62 14012 3120.49 14023.9 3114.24C14035.8 3107.99 14044.5 3099.4 14050 3088.46C14055.7 3077.33 14058.5 3064.63 14058.5 3050.38C14058.5 3036.9 14055.7 3024.3 14050 3012.58C14044.5 3000.67 14035.8 2991.1 14023.9 2983.87C14012 2976.64 13996.4 2973.03 13977.1 2973.03H13888.6V3341H13815V2914.44H13977.1C14010.1 2914.44 14038.1 2920.3 14061.1 2932.02C14084.4 2943.54 14102.1 2959.55 14114.2 2980.06C14126.3 3000.38 14132.3 3023.62 14132.3 3049.79C14132.3 3077.33 14126.3 3100.96 14114.2 3120.69C14102.1 3140.41 14084.4 3155.55 14061.1 3166.1C14038.1 3176.64 14010.1 3181.92 13977.1 3181.92ZM14615.4 3282.7V3341H14389V3282.7H14615.4ZM14409.8 2914.44V3341H14336.2V2914.44H14409.8ZM14585.9 3092.56V3149.98H14389V3092.56H14585.9ZM14614 2914.44V2973.03H14389V2914.44H14614ZM14813.5 2914.44H14964.4C14996.8 2914.44 15024.4 2919.32 15047.3 2929.09C15070.1 2938.85 15087.6 2953.3 15099.7 2972.45C15112 2991.39 15118.2 3014.83 15118.2 3042.76C15118.2 3064.05 15114.3 3082.8 15106.5 3099.01C15098.7 3115.22 15087.6 3128.89 15073.4 3140.02C15059.1 3150.96 15042.1 3159.46 15022.4 3165.51L15000.1 3176.35H14864.5L14863.9 3118.05H14965.6C14983.1 3118.05 14997.8 3114.93 15009.5 3108.68C15021.2 3102.43 15030 3093.93 15035.9 3083.19C15041.9 3072.25 15045 3059.95 15045 3046.27C15045 3031.43 15042 3018.54 15036.2 3007.6C15030.5 2996.47 15021.7 2987.97 15009.8 2982.11C14997.9 2976.06 14982.7 2973.03 14964.4 2973.03H14887V3341H14813.5V2914.44ZM15057 3341L14956.8 3149.4L15033.8 3149.11L15135.5 3337.19V3341H15057ZM15553.9 3231.14C15553.9 3222.35 15552.5 3214.54 15549.8 3207.7C15547.2 3200.86 15542.6 3194.61 15536 3188.95C15529.3 3183.29 15520 3177.82 15507.9 3172.54C15495.9 3167.07 15480.7 3161.51 15462.2 3155.84C15441.8 3149.59 15423.1 3142.66 15405.9 3135.04C15388.9 3127.23 15374.1 3118.25 15361.4 3108.09C15348.7 3097.74 15338.8 3085.92 15331.8 3072.64C15324.8 3059.16 15321.2 3043.64 15321.2 3026.06C15321.2 3008.68 15324.8 2992.86 15332.1 2978.6C15339.5 2964.34 15349.9 2952.04 15363.4 2941.68C15377.1 2931.14 15393.2 2923.03 15411.8 2917.37C15430.3 2911.51 15450.8 2908.58 15473.3 2908.58C15504.9 2908.58 15532.2 2914.44 15555 2926.16C15578.1 2937.88 15595.7 2953.6 15608.1 2973.32C15620.6 2993.05 15626.8 3014.83 15626.8 3038.66H15553.9C15553.9 3024.59 15550.8 3012.19 15544.8 3001.45C15538.9 2990.51 15529.9 2981.92 15517.8 2975.67C15505.9 2969.42 15490.8 2966.29 15472.4 2966.29C15455 2966.29 15440.6 2968.93 15429 2974.2C15417.5 2979.48 15408.9 2986.61 15403.3 2995.59C15397.6 3004.57 15394.8 3014.73 15394.8 3026.06C15394.8 3034.07 15396.6 3041.39 15400.3 3048.03C15404 3054.48 15409.7 3060.53 15417.3 3066.2C15424.9 3071.66 15434.5 3076.84 15446 3081.72C15457.6 3086.61 15471.1 3091.29 15486.8 3095.79C15510.4 3102.82 15531 3110.63 15548.6 3119.22C15566.2 3127.62 15580.8 3137.19 15592.5 3147.93C15604.2 3158.68 15613 3170.88 15618.9 3184.55C15624.8 3198.03 15627.7 3213.36 15627.7 3230.55C15627.7 3248.52 15624.1 3264.73 15616.8 3279.18C15609.6 3293.44 15599.3 3305.65 15585.8 3315.8C15572.5 3325.77 15556.5 3333.48 15537.7 3338.95C15519.2 3344.22 15498.5 3346.86 15475.6 3346.86C15455.1 3346.86 15434.9 3344.12 15415 3338.66C15395.3 3333.19 15377.3 3324.89 15361.1 3313.75C15344.9 3302.43 15332 3288.36 15322.4 3271.57C15312.8 3254.57 15308.1 3234.75 15308.1 3212.09H15381.6C15381.6 3225.96 15383.9 3237.78 15388.6 3247.54C15393.5 3257.31 15400.2 3265.32 15408.8 3271.57C15417.4 3277.62 15427.4 3282.11 15438.7 3285.04C15450.2 3287.97 15462.5 3289.44 15475.6 3289.44C15492.8 3289.44 15507.2 3287 15518.7 3282.11C15530.4 3277.23 15539.2 3270.39 15545.1 3261.61C15550.9 3252.82 15553.9 3242.66 15553.9 3231.14Z" fill="#37302F"/>
<defs>
<filter id="filter0_di_718_114" x="2645.5" y="1213.97" width="1113.5" height="2152.62" filterUnits="userSpaceOnUse" color-interpolation-filters="sRGB">
<feFlood flood-opacity="0" result="BackgroundImageFix"/>
<feColorMatrix in="SourceAlpha" type="matrix" values="0 0 0 0 0 0 0 0 0 0 0 0 0 0 0 0 0 0 127 0" result="hardAlpha"/>
<feOffset dx="10" dy="20"/>
<feGaussianBlur stdDeviation="2.5"/>
<feComposite in2="hardAlpha" operator="out"/>
<feColorMatrix type="matrix" values="0 0 0 0 0 0 0 0 0 0 0 0 0 0 0 0 0 0 0.4 0"/>
<feBlend mode="normal" in2="BackgroundImageFix" result="effect1_dropShadow_718_114"/>
<feBlend mode="normal" in="SourceGraphic" in2="effect1_dropShadow_718_114" result="shape"/>
<feColorMatrix in="SourceAlpha" type="matrix" values="0 0 0 0 0 0 0 0 0 0 0 0 0 0 0 0 0 0 127 0" result="hardAlpha"/>
<feOffset dx="10" dy="10"/>
<feGaussianBlur stdDeviation="2"/>
<feComposite in2="hardAlpha" operator="arithmetic" k2="-1" k3="1"/>
<feColorMatrix type="matrix" values="0 0 0 0 0 0 0 0 0 0 0 0 0 0 0 0 0 0 0.25 0"/>
<feBlend mode="normal" in2="shape" result="effect2_innerShadow_718_114"/>
</filter>
<filter id="filter1_df_718_114" x="1236" y="1424.02" width="572" height="375" filterUnits="userSpaceOnUse" color-interpolation-filters="sRGB">
<feFlood flood-opacity="0" result="BackgroundImageFix"/>
<feColorMatrix in="SourceAlpha" type="matrix" values="0 0 0 0 0 0 0 0 0 0 0 0 0 0 0 0 0 0 127 0" result="hardAlpha"/>
<feOffset dy="4"/>
<feGaussianBlur stdDeviation="50"/>
<feComposite in2="hardAlpha" operator="out"/>
<feColorMatrix type="matrix" values="0 0 0 0 0 0 0 0 0 0 0 0 0 0 0 0 0 0 0.25 0"/>
<feBlend mode="normal" in2="BackgroundImageFix" result="effect1_dropShadow_718_114"/>
<feBlend mode="normal" in="SourceGraphic" in2="effect1_dropShadow_718_114" result="shape"/>
<feGaussianBlur stdDeviation="5" result="effect2_foregroundBlur_718_114"/>
</filter>
</defs>
</svg>
